<svg width="24" height="24" viewBox="0 0 24 24" fill="none" xmlns="http://www.w3.org/2000/svg">
<path d="M1.99987 12L1.11165 11.5406L0.874023 12L1.11165 12.4594L1.99987 12ZM21.9999 11.9999L22.8881 12.4593L23.1257 11.9999L22.8881 11.5405L21.9999 11.9999ZM2.88809 12.4594C5.16596 8.05547 8.65276 6.00002 11.9999 6C15.347 5.99998 18.8338 8.05537 21.1117 12.4593L22.8881 11.5405C20.3385 6.61119 16.239 3.99997 11.9999 4C7.76071 4.00003 3.66123 6.61131 1.11165 11.5406L2.88809 12.4594ZM1.11165 12.4594C3.66124 17.3888 7.76072 20 11.9999 20C16.2391 19.9999 20.3385 17.3887 22.8881 12.4593L21.1117 11.5405C18.8338 15.9445 15.347 17.9999 11.9999 18C8.65275 18 5.16596 15.9446 2.88809 11.5406L1.11165 12.4594ZM13.9999 11.9999C13.9999 13.1045 13.1045 13.9999 11.9999 13.9999V15.9999C14.209 15.9999 15.9999 14.209 15.9999 11.9999H13.9999ZM11.9999 13.9999C10.8953 13.9999 9.99987 13.1045 9.99987 11.9999H7.99987C7.99987 14.209 9.79073 15.9999 11.9999 15.9999V13.9999ZM9.99987 11.9999C9.99987 10.8953 10.8953 9.99994 11.9999 9.99994V7.99995C9.79073 7.99995 7.99987 9.79081 7.99987 11.9999H9.99987ZM11.9999 9.99994C13.1045 9.99994 13.9999 10.8953 13.9999 11.9999H15.9999C15.9999 9.79081 14.209 7.99995 11.9999 7.99995V9.99994Z" fill="#666666"/>
</svg>
